name Walk7.mot
datacolumns 19
datarows 17
range 2.73500000 2.81500000
endheader

                time	   L_ground_force_vx	   L_ground_force_vy	   L_ground_force_vz	   L_ground_force_px	   L_ground_force_py	   L_ground_force_pz	   R_ground_force_vx	   R_ground_force_vy	   R_ground_force_vz	   R_ground_force_px	   R_ground_force_py	   R_ground_force_pz	   L_ground_torque_x	   L_ground_torque_y	   L_ground_torque_z	   R_ground_torque_x	   R_ground_torque_y	   R_ground_torque_z	
          2.73500000	         25.97490280	        725.72813054	         28.14848352	         -0.18649597	          0.00000000	         -0.02204277	          0.00142489	          0.12476343	          0.00486194	          0.00021999	          0.00000000	          0.00004324	          0.00000000	         -0.25056864	          0.00000000	          0.00000000	         -0.00065807	          0.00000000	
          2.74000000	         28.51872947	        732.95211991	         29.05284402	         -0.18453543	          0.00000000	         -0.02202787	         -0.00278015	          0.17940032	          0.00759254	          0.00028384	          0.00000000	          0.00005533	          0.00000000	         -0.29828207	          0.00000000	          0.00000000	         -0.00012753	          0.00000000	
          2.74500000	         31.16120275	        740.41652923	         29.87712293	         -0.18267078	          0.00000000	         -0.02197767	         -0.00899453	          0.24247488	          0.01091420	          0.00034840	          0.00000000	          0.00006736	          0.00000000	         -0.34027866	          0.00000000	          0.00000000	          0.00071550	          0.00000000	
          2.75000000	         33.89769903	        748.07817424	         30.58478865	         -0.18090215	          0.00000000	         -0.02189203	         -0.01757584	          0.31092812	          0.01474790	          0.00040610	          0.00000000	          0.00007781	          0.00000000	         -0.37992253	          0.00000000	          0.00000000	          0.00194187	          0.00000000	
          2.75500000	         36.73044724	        755.89477001	         31.14533535	         -0.17922767	          0.00000000	         -0.02177184	         -0.02878975	          0.37932653	          0.01890728	          0.00044600	          0.00000000	          0.00008451	          0.00000000	         -0.42055776	          0.00000000	          0.00000000	          0.00361476	          0.00000000	
          2.76000000	         39.67129235	        763.82587959	         31.54204685	         -0.17764424	          0.00000000	         -0.02161912	         -0.04272592	          0.43920402	          0.02306152	          0.00045321	          0.00000000	          0.00008453	          0.00000000	         -0.46466829	          0.00000000	          0.00000000	          0.00577763	          0.00000000	
          2.76500000	         42.73787060	        771.83605194	         31.77176691	         -0.17614869	          0.00000000	         -0.02143689	         -0.05918840	          0.47840958	          0.02669543	          0.00040856	          0.00000000	          0.00007414	          0.00000000	         -0.51333578	          0.00000000	          0.00000000	          0.00843781	          0.00000000	
          2.77000000	         45.95085979	        779.89300248	         31.84263109	         -0.17473802	          0.00000000	         -0.02122864	         -0.07756006	          0.48054459	          0.02906977	          0.00028855	          0.00000000	          0.00004879	          0.00000000	         -0.56652080	          0.00000000	          0.00000000	          0.01154543	          0.00000000	
          2.77500000	         49.32907627	        787.96585383	         31.77240598	         -0.17341085	          0.00000000	         -0.02099756	         -0.09664312	          0.42460924	          0.02918716	          0.00006582	          0.00000000	          0.00000324	          0.00000000	         -0.62339760	          0.00000000	          0.00000000	          0.01496751	          0.00000000	
          2.78000000	         52.88626522	        796.02464806	         31.58623940	         -0.17216657	          0.00000000	         -0.02074695	         -0.11448205	          0.28501854	          0.02577062	         -0.00028962	          0.00000000	         -0.00006818	          0.00000000	         -0.68245639	          0.00000000	          0.00000000	          0.01845793	          0.00000000	
          2.78500000	         56.63193512	        804.03448243	         31.31311657	         -0.17100460	          0.00000000	         -0.02048098	         -0.12818085	          0.03219286	          0.01726469	         -0.00080817	          0.00000000	         -0.00017114	          0.00000000	         -0.74200113	          0.00000000	          0.00000000	          0.02162442	          0.00000000	
          2.79000000	         60.57249737	        811.95318275	         30.98216739	         -0.16992341	          0.00000000	         -0.02020436	         -0.13373420	         -0.36602866	          0.00187150	         -0.00151711	          0.00000000	         -0.00031059	          0.00000000	         -0.79974671	          0.00000000	          0.00000000	          0.02389530	          0.00000000	
          2.79500000	         64.71016493	        819.72941496	         30.62069941	         -0.16891999	          0.00000000	         -0.01992215	         -0.12590079	         -0.94186561	         -0.02236314	         -0.00243552	          0.00000000	         -0.00048975	          0.00000000	         -0.85341817	          0.00000000	          0.00000000	          0.02448949	          0.00000000	
          2.80000000	         69.04200182	        827.30860221	         30.25480873	         -0.16799129	          0.00000000	         -0.01964054	         -0.09815843	         -1.72365559	         -0.05739614	         -0.00356731	          0.00000000	         -0.00070872	          0.00000000	         -0.90108636	          0.00000000	          0.00000000	          0.02239582	          0.00000000	
          2.80500000	         73.56053920	        834.63437833	         29.90947299	         -0.16713431	          0.00000000	         -0.01936468	         -0.04279186	         -2.73018789	         -0.10494734	         -0.00489224	          0.00000000	         -0.00096278	          0.00000000	         -0.94095081	          0.00000000	          0.00000000	          0.01636896	          0.00000000	
          2.81000000	         78.25234103	        841.64261522	         29.60847983	         -0.16634608	          0.00000000	         -0.01909826	          0.04882308	         -3.96304511	         -0.16615476	         -0.00635495	          0.00000000	         -0.00124021	          0.00000000	         -0.97133660	          0.00000000	          0.00000000	          0.00495205	          0.00000000	
          2.81500000	         83.09766511	        848.26022573	         29.37409280	         -0.16562239	          0.00000000	         -0.01884511	          0.18566429	         -5.39678289	         -0.24110883	         -0.00785214	          0.00000000	         -0.00151988	          0.00000000	         -0.99016253	          0.00000000	          0.00000000	         -0.01346198	          0.00000000	
